<?xml version="1.0" encoding="UTF-8"?>
<svg xmlns="http://www.w3.org/2000/svg" xmlns:xlink="http://www.w3.org/1999/xlink" width="242px" height="60px" viewBox="0 0 241 60" version="1.1">
<g id="surface1">
<path style=" stroke:none;fill-rule:nonzero;fill:rgb(5.490196%,64.705882%,87.45098%);fill-opacity:1;" d="M 232.660156 15.167969 C 232.035156 14.671875 231.089844 14.972656 230.492188 15.34375 C 230.105469 15.585938 229.773438 15.890625 229.484375 16.234375 C 230.503906 13.214844 231.523438 10.191406 232.546875 7.167969 C 232.640625 6.894531 232.714844 6.335938 232.285156 6.292969 C 231.882812 6.257812 231.523438 6.726562 231.410156 7.0625 C 230.074219 11.011719 228.742188 14.957031 227.40625 18.90625 C 227.402344 18.925781 227.394531 18.945312 227.390625 18.96875 C 227.039062 20.117188 226.683594 22.132812 228.1875 22.53125 C 228.566406 22.628906 229.066406 22.476562 229.421875 22.359375 C 230.320312 22.074219 231.066406 21.53125 231.714844 20.859375 C 232.878906 19.660156 234.347656 16.507812 232.660156 15.167969 Z M 230.792969 20.15625 C 230.4375 20.457031 230.003906 20.664062 229.558594 20.796875 C 229.410156 20.839844 229.257812 20.875 229.101562 20.898438 C 229.070312 20.90625 229.046875 20.910156 229.027344 20.914062 C 229.011719 20.910156 228.976562 20.90625 228.921875 20.902344 C 228.371094 20.878906 228.371094 20.222656 228.394531 19.816406 C 228.402344 19.613281 228.453125 19.40625 228.496094 19.210938 C 228.503906 19.175781 228.511719 19.140625 228.523438 19.109375 C 228.546875 19.117188 228.574219 19.121094 228.601562 19.125 C 229.015625 19.164062 229.351562 18.6875 229.480469 18.355469 C 229.730469 17.707031 230.832031 15.839844 231.789062 16.738281 C 232.742188 17.636719 231.53125 19.53125 230.792969 20.15625 Z M 240.570312 14.953125 C 240.109375 14.910156 239.734375 15.4375 239.59375 15.804688 C 238.96875 17.441406 238.171875 19.171875 236.75 20.265625 C 236.6875 20.308594 236.5 20.425781 236.324219 20.523438 C 236.273438 20.546875 236.226562 20.570312 236.175781 20.589844 C 236.152344 20.597656 236.046875 20.640625 236.019531 20.648438 C 235.824219 20.710938 235.625 20.730469 235.425781 20.71875 C 234.511719 20.652344 234.988281 19.039062 235.167969 18.433594 C 235.339844 17.851562 235.554688 17.285156 235.785156 16.726562 C 235.859375 16.542969 235.9375 16.367188 236.015625 16.1875 C 236.078125 16.050781 236.210938 15.777344 236.027344 16.160156 C 236.175781 15.851562 236.417969 15.234375 236.007812 14.996094 C 235.628906 14.777344 235.136719 15.253906 234.992188 15.558594 C 234.476562 16.632812 234.054688 17.742188 233.742188 18.890625 C 233.425781 20.046875 233.050781 22.183594 234.652344 22.53125 C 235.503906 22.714844 236.414062 22.171875 237.066406 21.707031 C 237.367188 21.496094 237.644531 21.253906 237.90625 20.996094 C 237.820312 21.246094 237.898438 21.015625 237.910156 20.988281 C 237.914062 20.988281 237.914062 20.988281 237.914062 20.988281 C 237.914062 20.992188 237.910156 21.007812 237.898438 21.050781 C 237.839844 21.238281 237.777344 21.425781 237.714844 21.613281 C 236.699219 24.523438 234.589844 27.742188 231.0625 27.582031 C 230.359375 27.550781 229.660156 29.191406 230.445312 29.226562 C 234.59375 29.414062 237.289062 25.714844 238.660156 22.230469 C 238.816406 21.84375 238.953125 21.445312 239.066406 21.042969 C 239.078125 21.003906 239.089844 20.96875 239.097656 20.941406 C 239.101562 20.933594 239.105469 20.914062 239.117188 20.878906 C 239.207031 20.625 239.292969 20.367188 239.378906 20.113281 C 239.734375 19.054688 240.09375 18 240.449219 16.941406 C 240.59375 16.597656 240.730469 16.257812 240.859375 15.925781 C 240.972656 15.621094 241.035156 14.996094 240.570312 14.953125 Z M 240.570312 14.953125 "/>
<path style=" stroke:none;fill-rule:nonzero;fill:rgb(0%,0%,0%);fill-opacity:1;" d="M 214.953125 24.023438 C 214.953125 24.511719 214.558594 24.914062 214.066406 24.914062 C 213.578125 24.914062 213.179688 24.511719 213.179688 24.023438 C 213.179688 23.535156 213.578125 23.132812 214.066406 23.132812 C 214.558594 23.132812 214.953125 23.535156 214.953125 24.023438 Z M 214.953125 24.023438 "/>
<path style=" stroke:none;fill-rule:nonzero;fill:rgb(0%,0%,0%);fill-opacity:1;" d="M 150.242188 29.546875 C 150.242188 30.039062 149.847656 30.4375 149.355469 30.4375 C 148.867188 30.4375 148.46875 30.039062 148.46875 29.546875 C 148.46875 29.054688 148.867188 28.660156 149.355469 28.660156 C 149.847656 28.660156 150.242188 29.054688 150.242188 29.546875 Z M 150.242188 29.546875 "/>
<path style=" stroke:none;fill-rule:nonzero;fill:rgb(0%,0%,0%);fill-opacity:1;" d="M 112.523438 29.546875 C 112.523438 30.039062 112.125 30.4375 111.636719 30.4375 C 111.148438 30.4375 110.75 30.039062 110.75 29.546875 C 110.75 29.058594 111.148438 28.660156 111.636719 28.660156 C 112.125 28.660156 112.523438 29.058594 112.523438 29.546875 Z M 112.523438 29.546875 "/>
<path style=" stroke:none;fill-rule:nonzero;fill:rgb(0%,0%,0%);fill-opacity:1;" d="M 191.90625 23.9375 C 191.90625 24.425781 191.507812 24.828125 191.019531 24.828125 C 190.527344 24.828125 190.132812 24.425781 190.132812 23.9375 C 190.132812 23.445312 190.527344 23.046875 191.019531 23.046875 C 191.507812 23.046875 191.90625 23.445312 191.90625 23.9375 Z M 191.90625 23.9375 "/>
<path style=" stroke:none;fill-rule:nonzero;fill:rgb(0%,0%,0%);fill-opacity:1;" d="M 155.425781 24.4375 C 154.839844 23.796875 154.105469 23.285156 153.222656 22.898438 C 152.339844 22.511719 151.292969 22.320312 150.082031 22.320312 C 148.902344 22.320312 147.863281 22.539062 146.972656 22.980469 C 146.078125 23.417969 145.316406 23.984375 144.675781 24.675781 C 144.042969 25.367188 143.542969 26.179688 143.175781 27.105469 C 142.8125 28.03125 142.632812 28.945312 142.632812 29.84375 C 142.632812 30.902344 142.824219 31.925781 143.214844 32.917969 C 143.601562 33.910156 144.140625 34.742188 144.824219 35.421875 C 145.511719 36.097656 146.316406 36.613281 147.242188 36.964844 C 148.167969 37.320312 149.171875 37.5 150.246094 37.5 C 150.777344 37.5 151.328125 37.457031 151.894531 37.371094 C 152.460938 37.289062 153.011719 37.160156 153.542969 36.980469 C 154.074219 36.804688 154.570312 36.570312 155.027344 36.285156 C 155.488281 36 155.875 35.65625 156.1875 35.246094 C 156.265625 35.140625 156.324219 35.023438 156.359375 34.902344 C 156.394531 34.777344 156.410156 34.660156 156.410156 34.550781 C 156.410156 34.296875 156.328125 34.070312 156.167969 33.871094 C 156.003906 33.675781 155.789062 33.574219 155.523438 33.574219 C 155.367188 33.574219 155.199219 33.621094 155.023438 33.710938 C 154.28125 34.085938 153.558594 34.386719 152.847656 34.613281 C 152.136719 34.839844 151.382812 34.953125 150.585938 34.953125 C 149.285156 34.953125 148.238281 34.554688 147.445312 33.769531 C 146.648438 32.976562 146.207031 31.867188 146.121094 30.4375 C 146.074219 29.859375 146.074219 29.269531 146.148438 28.660156 C 146.191406 28.226562 146.3125 27.746094 146.519531 27.222656 C 146.726562 26.703125 147 26.242188 147.339844 25.847656 C 147.683594 25.453125 148.085938 25.152344 148.550781 24.945312 C 149.019531 24.734375 149.542969 24.628906 150.113281 24.628906 C 150.746094 24.628906 151.304688 24.726562 151.792969 24.917969 C 152.277344 25.113281 152.691406 25.402344 153.03125 25.777344 C 153.371094 26.160156 153.636719 26.617188 153.824219 27.148438 C 154.011719 27.683594 154.125 28.183594 154.164062 28.660156 L 149.355469 28.660156 L 149.355469 30.4375 L 156.191406 30.4375 C 156.542969 30.4375 156.808594 30.335938 156.980469 30.132812 C 157.152344 29.933594 157.238281 29.699219 157.238281 29.429688 C 157.21875 28.53125 157.058594 27.636719 156.757812 26.742188 C 156.457031 25.851562 156.011719 25.082031 155.425781 24.4375 Z M 155.425781 24.4375 "/>
<path style=" stroke:none;fill-rule:nonzero;fill:rgb(0%,0%,0%);fill-opacity:1;" d="M 136.921875 22.902344 C 136.757812 22.773438 136.574219 22.671875 136.367188 22.601562 C 136.160156 22.535156 135.953125 22.5 135.746094 22.5 C 135.410156 22.5 135.105469 22.589844 134.832031 22.777344 C 134.554688 22.96875 134.34375 23.265625 134.195312 23.683594 L 130.421875 34.964844 L 126.519531 23.667969 C 126.363281 23.261719 126.152344 22.96875 125.886719 22.777344 C 125.621094 22.589844 125.324219 22.5 124.996094 22.5 C 124.78125 22.5 124.570312 22.535156 124.363281 22.601562 C 124.15625 22.671875 123.96875 22.773438 123.808594 22.902344 C 123.644531 23.039062 123.511719 23.199219 123.414062 23.386719 C 123.316406 23.574219 123.269531 23.78125 123.269531 24.007812 C 123.269531 24.21875 123.300781 24.402344 123.371094 24.570312 L 127.484375 35.011719 C 127.660156 35.449219 127.839844 35.820312 128.027344 36.128906 C 128.214844 36.441406 128.425781 36.699219 128.65625 36.898438 C 128.886719 37.101562 129.148438 37.253906 129.433594 37.351562 C 129.71875 37.449219 130.050781 37.5 130.421875 37.5 C 130.796875 37.5 131.132812 37.449219 131.421875 37.351562 C 131.710938 37.253906 131.976562 37.101562 132.214844 36.898438 C 132.449219 36.699219 132.660156 36.441406 132.847656 36.128906 C 133.035156 35.820312 133.214844 35.449219 133.382812 35.011719 L 137.359375 24.585938 C 137.398438 24.484375 137.421875 24.390625 137.433594 24.289062 C 137.441406 24.191406 137.453125 24.097656 137.460938 24.007812 C 137.460938 23.78125 137.414062 23.574219 137.3125 23.386719 C 137.21875 23.199219 137.085938 23.039062 136.921875 22.902344 Z M 136.921875 22.902344 "/>
<path style=" stroke:none;fill-rule:nonzero;fill:rgb(0%,0%,0%);fill-opacity:1;" d="M 99.382812 22.765625 C 99.253906 22.636719 99.09375 22.53125 98.902344 22.445312 C 98.707031 22.363281 98.488281 22.320312 98.242188 22.320312 C 97.167969 22.320312 96.3125 22.59375 95.671875 23.144531 C 95.027344 23.691406 94.597656 24.382812 94.371094 25.222656 L 94.371094 24.625 C 94.371094 24.472656 94.367188 24.335938 94.363281 24.21875 C 94.355469 24.097656 94.355469 24.035156 94.355469 24.023438 C 94.34375 23.769531 94.289062 23.542969 94.183594 23.347656 C 94.082031 23.15625 93.949219 23 93.792969 22.875 C 93.632812 22.75 93.457031 22.660156 93.261719 22.59375 C 93.0625 22.53125 92.863281 22.5 92.65625 22.5 C 92.4375 22.5 92.222656 22.535156 92.011719 22.601562 C 91.796875 22.671875 91.613281 22.773438 91.449219 22.902344 C 91.289062 23.039062 91.152344 23.207031 91.050781 23.414062 C 90.949219 23.625 90.894531 23.859375 90.894531 24.128906 L 90.894531 35.859375 C 90.894531 36.132812 90.945312 36.378906 91.042969 36.582031 C 91.140625 36.789062 91.273438 36.960938 91.433594 37.09375 C 91.597656 37.226562 91.78125 37.328125 91.980469 37.398438 C 92.183594 37.464844 92.394531 37.5 92.609375 37.5 C 92.828125 37.5 93.042969 37.464844 93.253906 37.398438 C 93.464844 37.328125 93.652344 37.226562 93.816406 37.085938 C 93.980469 36.949219 94.113281 36.777344 94.214844 36.574219 C 94.316406 36.375 94.371094 36.132812 94.371094 35.859375 L 94.371094 29.042969 C 94.371094 28.355469 94.460938 27.785156 94.644531 27.34375 C 94.824219 26.894531 95.082031 26.503906 95.414062 26.164062 C 95.742188 25.824219 96.140625 25.570312 96.609375 25.402344 C 97.078125 25.234375 97.597656 25.152344 98.171875 25.152344 C 98.4375 25.152344 98.671875 25.109375 98.871094 25.023438 C 99.074219 24.941406 99.242188 24.832031 99.375 24.699219 C 99.507812 24.5625 99.605469 24.414062 99.671875 24.246094 C 99.734375 24.078125 99.765625 23.90625 99.765625 23.726562 C 99.765625 23.550781 99.734375 23.378906 99.671875 23.210938 C 99.605469 23.042969 99.507812 22.894531 99.382812 22.765625 Z M 99.382812 22.765625 "/>
<path style=" stroke:none;fill-rule:nonzero;fill:rgb(0%,0%,0%);fill-opacity:1;" d="M 167 17.9375 C 166.835938 17.792969 166.652344 17.683594 166.445312 17.609375 C 166.238281 17.539062 166.023438 17.5 165.808594 17.5 C 165.59375 17.5 165.378906 17.535156 165.164062 17.609375 C 164.953125 17.683594 164.765625 17.792969 164.601562 17.9375 C 164.441406 18.078125 164.3125 18.257812 164.214844 18.46875 C 164.113281 18.683594 164.066406 18.929688 164.066406 19.21875 L 164.066406 35.785156 C 164.066406 36.070312 164.113281 36.324219 164.214844 36.539062 C 164.3125 36.753906 164.4375 36.933594 164.597656 37.078125 C 164.753906 37.21875 164.9375 37.328125 165.144531 37.398438 C 165.351562 37.46875 165.5625 37.5 165.777344 37.5 C 165.996094 37.5 166.210938 37.464844 166.421875 37.390625 C 166.636719 37.316406 166.824219 37.207031 166.984375 37.0625 C 167.144531 36.921875 167.28125 36.742188 167.382812 36.53125 C 167.488281 36.320312 167.539062 36.070312 167.539062 35.785156 L 167.539062 19.21875 C 167.539062 18.929688 167.492188 18.683594 167.390625 18.46875 C 167.289062 18.257812 167.160156 18.078125 167 17.9375 Z M 167 17.9375 "/>
<path style=" stroke:none;fill-rule:nonzero;fill:rgb(0%,0%,0%);fill-opacity:1;" d="M 197.273438 23.664062 C 196.792969 23.203125 196.242188 22.863281 195.617188 22.648438 C 194.992188 22.429688 194.335938 22.320312 193.644531 22.320312 C 193.113281 22.320312 192.589844 22.390625 192.078125 22.527344 C 191.5625 22.667969 191.085938 22.867188 190.640625 23.128906 C 190.609375 23.148438 190.578125 23.171875 190.542969 23.1875 L 191.261719 24.792969 C 191.632812 24.6875 192.027344 24.628906 192.449219 24.628906 C 192.839844 24.628906 193.214844 24.699219 193.570312 24.832031 C 193.925781 24.964844 194.234375 25.171875 194.503906 25.445312 C 194.769531 25.722656 194.980469 26.066406 195.136719 26.480469 C 195.292969 26.894531 195.375 27.386719 195.375 27.949219 L 195.375 35.828125 C 195.375 36.105469 195.421875 36.347656 195.519531 36.554688 C 195.621094 36.761719 195.75 36.933594 195.914062 37.078125 C 196.074219 37.21875 196.257812 37.328125 196.460938 37.398438 C 196.664062 37.46875 196.871094 37.5 197.089844 37.5 C 197.304688 37.5 197.519531 37.46875 197.734375 37.398438 C 197.945312 37.328125 198.132812 37.222656 198.296875 37.078125 C 198.457031 36.933594 198.589844 36.761719 198.6875 36.554688 C 198.785156 36.347656 198.832031 36.105469 198.832031 35.828125 L 198.832031 27.976562 C 198.832031 26.992188 198.695312 26.140625 198.410156 25.425781 C 198.132812 24.707031 197.75 24.121094 197.273438 23.664062 Z M 197.273438 23.664062 "/>
<path style=" stroke:none;fill-rule:nonzero;fill:rgb(0%,0%,0%);fill-opacity:1;" d="M 188.136719 22.890625 C 187.972656 22.757812 187.789062 22.660156 187.589844 22.59375 C 187.386719 22.53125 187.175781 22.5 186.960938 22.5 C 186.742188 22.5 186.53125 22.535156 186.316406 22.601562 C 186.105469 22.671875 185.917969 22.773438 185.757812 22.902344 C 185.59375 23.039062 185.460938 23.207031 185.363281 23.414062 C 185.265625 23.625 185.214844 23.859375 185.214844 24.128906 L 185.214844 35.828125 C 185.214844 36.105469 185.265625 36.34375 185.363281 36.554688 C 185.460938 36.761719 185.59375 36.933594 185.757812 37.078125 C 185.917969 37.21875 186.101562 37.328125 186.308594 37.398438 C 186.515625 37.464844 186.730469 37.5 186.945312 37.5 C 187.164062 37.5 187.375 37.464844 187.589844 37.398438 C 187.800781 37.328125 187.988281 37.21875 188.148438 37.078125 C 188.3125 36.933594 188.445312 36.761719 188.539062 36.554688 C 188.640625 36.34375 188.691406 36.105469 188.691406 35.828125 L 188.691406 28.523438 C 188.691406 27.835938 188.691406 24.066406 188.691406 24.066406 C 188.679688 23.804688 188.625 23.570312 188.527344 23.382812 C 188.429688 23.1875 188.300781 23.023438 188.136719 22.890625 Z M 188.136719 22.890625 "/>
<path style=" stroke:none;fill-rule:nonzero;fill:rgb(0%,0%,0%);fill-opacity:1;" d="M 177.582031 22.9375 C 177.417969 22.792969 177.234375 22.683594 177.027344 22.609375 C 176.820312 22.535156 176.609375 22.5 176.390625 22.5 C 176.175781 22.5 175.960938 22.535156 175.75 22.609375 C 175.535156 22.683594 175.351562 22.792969 175.1875 22.9375 C 175.023438 23.078125 174.894531 23.257812 174.796875 23.46875 C 174.695312 23.679688 174.648438 23.929688 174.648438 24.21875 L 174.648438 35.785156 C 174.648438 36.070312 174.695312 36.324219 174.796875 36.539062 C 174.894531 36.753906 175.023438 36.933594 175.179688 37.078125 C 175.335938 37.21875 175.519531 37.328125 175.726562 37.398438 C 175.933594 37.46875 176.144531 37.5 176.363281 37.5 C 176.578125 37.5 176.796875 37.464844 177.007812 37.390625 C 177.21875 37.316406 177.40625 37.207031 177.566406 37.0625 C 177.730469 36.921875 177.863281 36.746094 177.96875 36.53125 C 178.070312 36.320312 178.121094 36.070312 178.121094 35.785156 L 178.121094 24.21875 C 178.121094 23.929688 178.074219 23.679688 177.976562 23.46875 C 177.875 23.257812 177.746094 23.078125 177.582031 22.9375 Z M 177.582031 22.9375 "/>
<path style=" stroke:none;fill-rule:nonzero;fill:rgb(0%,0%,0%);fill-opacity:1;" d="M 178.121094 19.238281 C 178.121094 20.199219 177.34375 20.980469 176.386719 20.980469 C 175.425781 20.980469 174.648438 20.199219 174.648438 19.238281 C 174.648438 18.277344 175.425781 17.5 176.386719 17.5 C 177.34375 17.5 178.121094 18.277344 178.121094 19.238281 Z M 178.121094 19.238281 "/>
<path style=" stroke:none;fill-rule:nonzero;fill:rgb(0%,0%,0%);fill-opacity:1;" d="M 116.949219 25.230469 C 116.652344 24.546875 116.234375 23.988281 115.703125 23.558594 C 115.171875 23.128906 114.535156 22.816406 113.800781 22.617188 C 113.066406 22.421875 112.269531 22.320312 111.414062 22.320312 C 110.003906 22.320312 108.800781 22.484375 107.808594 22.800781 C 106.808594 23.125 106.074219 23.640625 105.601562 24.347656 C 105.535156 24.457031 105.484375 24.554688 105.445312 24.636719 C 105.414062 24.71875 105.394531 24.816406 105.394531 24.925781 C 105.394531 25.054688 105.421875 25.179688 105.476562 25.304688 C 105.53125 25.429688 105.605469 25.539062 105.699219 25.632812 C 105.792969 25.722656 105.902344 25.796875 106.023438 25.851562 C 106.144531 25.90625 106.277344 25.933594 106.417969 25.933594 C 106.5625 25.933594 106.710938 25.902344 106.859375 25.847656 C 107.15625 25.710938 107.457031 25.578125 107.761719 25.453125 C 108.066406 25.328125 108.394531 25.21875 108.746094 25.121094 C 109.09375 25.023438 109.472656 24.945312 109.875 24.890625 C 110.277344 24.835938 110.730469 24.808594 111.222656 24.808594 C 111.65625 24.808594 112.050781 24.855469 112.410156 24.945312 C 112.773438 25.03125 113.078125 25.179688 113.335938 25.386719 C 113.59375 25.59375 113.792969 25.867188 113.933594 26.203125 C 114.078125 26.539062 114.148438 26.957031 114.148438 27.460938 L 114.148438 30.511719 C 114.148438 31.988281 113.246094 35.1875 109.445312 35.1875 C 108.347656 35.1875 107.652344 34.34375 107.53125 33.46875 C 107.433594 32.746094 107.21875 30.4375 111.636719 30.4375 L 111.636719 28.660156 C 106.59375 28.660156 105.304688 30.296875 104.914062 30.929688 C 104.527344 31.570312 104.332031 32.34375 104.332031 33.25 C 104.332031 33.832031 104.460938 34.398438 104.714844 34.953125 C 104.972656 35.507812 105.324219 35.96875 105.773438 36.34375 C 106.21875 36.71875 106.753906 37.007812 107.371094 37.203125 C 107.984375 37.402344 108.648438 37.5 109.359375 37.5 C 109.863281 37.5 110.359375 37.4375 110.851562 37.3125 C 111.34375 37.191406 111.8125 37.007812 112.25 36.765625 C 112.6875 36.523438 113.078125 36.226562 113.417969 35.863281 C 113.757812 35.503906 114.03125 35.144531 114.238281 34.789062 L 114.238281 36.078125 C 114.246094 36.316406 114.296875 36.523438 114.386719 36.699219 C 114.476562 36.878906 114.589844 37.027344 114.734375 37.144531 C 114.875 37.265625 115.039062 37.351562 115.222656 37.414062 C 115.402344 37.472656 115.589844 37.5 115.777344 37.5 C 115.972656 37.5 116.167969 37.46875 116.359375 37.402344 C 116.550781 37.339844 116.722656 37.246094 116.878906 37.113281 C 117.027344 36.988281 117.152344 36.828125 117.246094 36.644531 C 117.339844 36.453125 117.390625 36.234375 117.402344 35.976562 L 117.402344 27.726562 C 117.402344 26.75 117.25 25.917969 116.949219 25.230469 Z M 116.949219 25.230469 "/>
<path style=" stroke:none;fill-rule:nonzero;fill:rgb(0%,0%,0%);fill-opacity:1;" d="M 219.484375 23.421875 C 219.390625 23.222656 219.265625 23.050781 219.105469 22.914062 C 218.949219 22.777344 218.773438 22.671875 218.582031 22.601562 C 218.390625 22.535156 218.191406 22.5 217.980469 22.5 C 217.796875 22.5 217.613281 22.527344 217.433594 22.582031 C 217.257812 22.636719 217.09375 22.71875 216.949219 22.828125 C 216.800781 22.945312 216.675781 23.082031 216.578125 23.246094 C 216.480469 23.410156 216.414062 23.597656 216.386719 23.820312 L 216.386719 30.511719 C 216.386719 31.988281 215.480469 35.1875 211.683594 35.1875 C 211.410156 35.1875 211.164062 35.136719 210.945312 35.046875 C 210.925781 35.039062 208.578125 34.390625 208.578125 29.90625 C 208.578125 29.242188 208.636719 28.582031 208.757812 27.917969 C 208.875 27.257812 209.078125 26.683594 209.367188 26.191406 C 209.660156 25.703125 210.042969 25.324219 210.523438 25.046875 C 211 24.765625 211.605469 24.628906 212.335938 24.628906 C 212.867188 24.628906 213.335938 24.707031 213.746094 24.859375 L 214.5625 23.253906 C 214.40625 23.148438 214.25 23.050781 214.085938 22.96875 C 213.640625 22.734375 213.160156 22.566406 212.652344 22.46875 C 212.144531 22.371094 211.621094 22.320312 211.074219 22.320312 C 210.0625 22.320312 209.167969 22.523438 208.394531 22.929688 C 207.621094 23.332031 206.96875 23.886719 206.441406 24.597656 C 205.914062 25.300781 205.519531 26.132812 205.253906 27.089844 C 204.984375 28.046875 204.851562 29.019531 204.851562 30.007812 C 204.851562 31.101562 204.988281 32.09375 205.257812 32.972656 C 205.53125 33.859375 205.933594 34.621094 206.472656 35.265625 C 207.011719 35.90625 207.675781 36.410156 208.476562 36.773438 C 209.195312 37.105469 209.6875 37.269531 210.945312 37.46875 C 211.160156 37.488281 211.371094 37.5 211.59375 37.5 C 212.097656 37.5 212.597656 37.4375 213.089844 37.3125 C 213.582031 37.191406 214.046875 37.007812 214.484375 36.765625 C 214.925781 36.523438 215.3125 36.226562 215.652344 35.863281 C 215.949219 35.550781 216.191406 35.238281 216.386719 34.929688 L 216.386719 37.257812 C 216.386719 37.257812 216.476562 38.875 215.101562 40.011719 C 214.738281 40.3125 214.253906 40.480469 213.71875 40.597656 C 213.179688 40.714844 212.582031 40.777344 211.921875 40.777344 C 211.457031 40.777344 211.039062 40.746094 210.664062 40.679688 C 210.289062 40.617188 209.945312 40.53125 209.628906 40.433594 C 209.3125 40.335938 209.015625 40.21875 208.734375 40.09375 C 208.453125 39.964844 208.175781 39.839844 207.898438 39.722656 C 207.75 39.664062 207.613281 39.636719 207.484375 39.636719 C 207.191406 39.636719 206.9375 39.746094 206.730469 39.976562 C 206.523438 40.203125 206.421875 40.464844 206.421875 40.757812 C 206.421875 40.957031 206.488281 41.167969 206.625 41.398438 C 207.039062 42.105469 207.691406 42.636719 208.578125 42.980469 C 209.46875 43.324219 210.664062 43.5 212.171875 43.5 C 213.246094 43.5 214.234375 43.382812 215.144531 43.152344 C 216.050781 42.921875 216.835938 42.542969 217.5 42.027344 C 218.167969 41.507812 218.6875 40.832031 219.0625 40 C 219.4375 39.160156 219.625 38.148438 219.625 36.953125 L 219.625 24.140625 C 219.625 23.863281 219.578125 23.625 219.484375 23.421875 Z M 219.484375 23.421875 "/>
<path style=" stroke:none;fill-rule:nonzero;fill:rgb(0%,0%,0%);fill-opacity:1;" d="M 82.609375 24.882812 C 83.023438 24.882812 83.332031 24.761719 83.535156 24.511719 C 83.738281 24.265625 83.839844 23.996094 83.839844 23.699219 C 83.839844 23.402344 83.734375 23.128906 83.527344 22.878906 C 83.320312 22.625 83.015625 22.5 82.609375 22.5 L 73.097656 22.5 C 72.683594 22.5 72.375 22.625 72.167969 22.878906 C 71.960938 23.128906 71.855469 23.402344 71.855469 23.699219 C 71.855469 23.996094 71.957031 24.265625 72.160156 24.511719 C 72.363281 24.761719 72.667969 24.882812 73.082031 24.882812 L 76.097656 24.882812 L 76.097656 32.257812 C 76.097656 33.234375 76.195312 34.058594 76.386719 34.730469 C 76.578125 35.402344 76.855469 35.941406 77.222656 36.351562 C 77.585938 36.761719 78.035156 37.054688 78.566406 37.234375 C 79.097656 37.410156 79.710938 37.5 80.398438 37.5 C 80.792969 37.5 81.183594 37.476562 81.566406 37.433594 C 81.953125 37.386719 82.300781 37.308594 82.609375 37.1875 C 82.921875 37.070312 83.171875 36.910156 83.363281 36.714844 C 83.558594 36.515625 83.652344 36.261719 83.652344 35.945312 C 83.652344 35.636719 83.546875 35.363281 83.339844 35.117188 C 83.136719 34.867188 82.84375 34.746094 82.46875 34.746094 C 82.410156 34.746094 82.328125 34.75 82.226562 34.757812 C 82.121094 34.769531 82.011719 34.78125 81.894531 34.796875 C 81.773438 34.8125 81.65625 34.824219 81.539062 34.835938 C 81.421875 34.84375 81.3125 34.847656 81.214844 34.847656 C 80.820312 34.847656 80.511719 34.78125 80.289062 34.648438 C 80.066406 34.515625 79.90625 34.300781 79.800781 33.996094 C 79.699219 33.695312 79.632812 33.304688 79.609375 32.820312 C 79.585938 32.335938 79.574219 31.746094 79.574219 31.042969 L 79.574219 24.882812 Z M 82.609375 24.882812 "/>
<path style=" stroke:none;fill-rule:nonzero;fill:rgb(96.862745%,22.352941%,22.352941%);fill-opacity:1;" d="M 59.375 30 C 59.375 46.292969 46.195312 59.5 29.9375 59.5 C 13.679688 59.5 0.5 46.292969 0.5 30 C 0.5 13.707031 13.679688 0.5 29.9375 0.5 C 46.195312 0.5 59.375 13.707031 59.375 30 Z M 59.375 30 "/>
<path style=" stroke:none;fill-rule:nonzero;fill:rgb(35.686275%,27.843137%,81.960784%);fill-opacity:1;" d="M 46.824219 14.957031 C 47.183594 15.640625 47.457031 16.320312 47.644531 16.980469 C 41.402344 17.921875 36.011719 21.972656 28.359375 24.289062 C 29.148438 22.492188 30.082031 21.179688 30.449219 20.65625 C 31.734375 18.792969 33.070312 16.949219 34.074219 14.902344 C 34.835938 13.363281 35.320312 11.886719 35.566406 10.5 C 40.542969 10.507812 44.929688 11.347656 46.824219 14.957031 Z M 46.824219 14.957031 "/>
<path style=" stroke:none;fill-rule:nonzero;fill:rgb(18.823529%,38.823529%,88.627451%);fill-opacity:1;" d="M 47.644531 16.980469 C 49.734375 24.199219 42.261719 29.945312 33.367188 32.8125 C 31.738281 33.34375 29.945312 33.960938 28.140625 34.703125 C 26.25 30.851562 27.140625 27.019531 28.359375 24.289062 C 36.007812 21.972656 41.402344 17.921875 47.644531 16.980469 Z M 47.644531 16.980469 "/>
<path style=" stroke:none;fill-rule:nonzero;fill:rgb(100%,61.568627%,7.058824%);fill-opacity:1;" d="M 34.25 40.929688 C 36.242188 42.171875 38.6875 43.597656 40.433594 45.480469 C 38.03125 45.214844 35.410156 44.753906 32.566406 44.0625 C 27.574219 42.859375 22.035156 41.742188 17.464844 41.886719 C 19.855469 38.699219 24.023438 36.398438 28.140625 34.703125 C 29.191406 36.835938 31.085938 38.96875 34.25 40.929688 Z M 34.25 40.929688 "/>
<path style=" stroke:none;fill-rule:nonzero;fill:rgb(27.45098%,23.137255%,67.843137%);fill-opacity:1;" d="M 29.9375 0 C 29.476562 0 29.015625 0.015625 28.5625 0.0351562 C 33.085938 0.00390625 36.660156 4.332031 35.566406 10.5 C 40.542969 10.507812 44.929688 11.347656 46.824219 14.957031 C 47.183594 15.640625 47.457031 16.320312 47.644531 16.980469 C 49.140625 16.753906 50.691406 16.703125 52.332031 16.90625 C 55.464844 17.292969 58.472656 20.230469 59.320312 24.25 C 56.644531 10.433594 44.507812 0 29.9375 0 Z M 29.9375 0 "/>
<path style=" stroke:none;fill-rule:nonzero;fill:rgb(5.490196%,64.705882%,87.45098%);fill-opacity:1;" d="M 29.9375 0 C 29.476562 0 29.015625 0.015625 28.5625 0.0351562 C 33.085938 0.00390625 36.660156 4.332031 35.566406 10.5 C 40.542969 10.507812 44.929688 11.347656 46.824219 14.957031 C 47.183594 15.640625 47.457031 16.320312 47.644531 16.980469 C 49.140625 16.753906 50.691406 16.703125 52.332031 16.90625 C 55.464844 17.292969 58.472656 20.230469 59.320312 24.25 C 56.644531 10.433594 44.507812 0 29.9375 0 Z M 29.9375 0 "/>
<path style=" stroke:none;fill-rule:nonzero;fill:rgb(96.862745%,22.352941%,22.352941%);fill-opacity:1;" d="M 28.5625 0.0351562 C 24.300781 0.226562 20.273438 1.316406 16.660156 3.113281 C 14.921875 4.082031 12.683594 7.300781 16.082031 9.78125 C 19.808594 12.261719 28.304688 10.492188 35.566406 10.5 C 36.660156 4.332031 33.085938 0.0078125 28.5625 0.0351562 Z M 28.5625 0.0351562 "/>
<path style=" stroke:none;fill-rule:nonzero;fill:rgb(82.745098%,4.313725%,40%);fill-opacity:1;" d="M 16.082031 9.78125 C 12.683594 7.300781 14.921875 4.082031 16.65625 3.113281 C 11.464844 5.691406 7.128906 9.734375 4.183594 14.703125 C 3.230469 16.46875 -0.160156 24.203125 12.859375 25.703125 C 19.09375 26.339844 24.074219 25.589844 28.355469 24.289062 C 29.148438 22.492188 30.082031 21.179688 30.445312 20.65625 C 31.734375 18.792969 33.070312 16.949219 34.074219 14.902344 C 34.835938 13.363281 35.320312 11.886719 35.566406 10.5 C 28.304688 10.492188 19.808594 12.261719 16.082031 9.78125 Z M 16.082031 9.78125 "/>
<path style=" stroke:none;fill-rule:nonzero;fill:rgb(56.078431%,18.823529%,62.745098%);fill-opacity:1;" d="M 12.859375 25.703125 C -0.160156 24.203125 3.230469 16.46875 4.183594 14.703125 C 1.53125 19.183594 0 24.410156 0 30 C 0 38.449219 3.488281 46.074219 9.097656 51.527344 C 8.054688 50.390625 6.679688 47.214844 10.269531 44.015625 C 11.992188 42.582031 14.53125 41.976562 17.464844 41.886719 C 19.855469 38.699219 24.023438 36.398438 28.140625 34.703125 C 26.25 30.851562 27.140625 27.019531 28.355469 24.289062 C 24.074219 25.589844 19.09375 26.339844 12.859375 25.703125 Z M 12.859375 25.703125 "/>
<path style=" stroke:none;fill-rule:nonzero;fill:rgb(100%,61.568627%,7.058824%);fill-opacity:1;" d="M 15.566406 46.140625 C 15.835938 44.566406 16.507812 43.15625 17.464844 41.886719 C 14.53125 41.976562 11.992188 42.582031 10.269531 44.015625 C 6.679688 47.214844 8.054688 50.390625 9.097656 51.527344 C 12.601562 54.933594 16.933594 57.488281 21.765625 58.859375 C 16.425781 56.390625 14.988281 49.527344 15.566406 46.140625 Z M 15.566406 46.140625 "/>
<path style=" stroke:none;fill-rule:nonzero;fill:rgb(100%,76.078431%,5.882353%);fill-opacity:1;" d="M 32.566406 44.0625 C 27.574219 42.859375 22.035156 41.742188 17.464844 41.886719 C 16.507812 43.15625 15.835938 44.570312 15.566406 46.140625 C 14.988281 49.527344 16.425781 56.390625 21.765625 58.859375 C 24.363281 59.597656 27.101562 60 29.9375 60 C 32.132812 60 34.269531 59.757812 36.332031 59.304688 C 40.027344 57.78125 42.816406 54.71875 42.699219 50.539062 C 42.644531 48.523438 41.726562 46.878906 40.433594 45.480469 C 38.03125 45.214844 35.410156 44.753906 32.566406 44.0625 Z M 32.566406 44.0625 "/>
<path style=" stroke:none;fill-rule:nonzero;fill:rgb(100%,89.803922%,0%);fill-opacity:1;" d="M 40.433594 45.480469 C 41.726562 46.878906 42.644531 48.523438 42.699219 50.539062 C 42.816406 54.71875 40.027344 57.78125 36.332031 59.304688 C 46.988281 56.984375 55.519531 48.976562 58.617188 38.613281 C 56.960938 43.949219 50.777344 46.613281 40.433594 45.480469 Z M 40.433594 45.480469 "/>
<path style=" stroke:none;fill-rule:nonzero;fill:rgb(0%,76.078431%,95.294118%);fill-opacity:1;" d="M 59.320312 24.253906 C 58.472656 20.230469 55.464844 17.292969 52.332031 16.90625 C 50.691406 16.703125 49.140625 16.753906 47.644531 16.980469 C 49.734375 24.199219 42.261719 29.945312 33.367188 32.8125 C 31.738281 33.34375 29.945312 33.960938 28.140625 34.703125 C 29.191406 36.835938 31.089844 38.96875 34.25 40.933594 C 36.242188 42.175781 38.6875 43.597656 40.433594 45.480469 C 50.777344 46.617188 56.960938 43.949219 58.617188 38.613281 C 59.433594 35.882812 59.875 32.996094 59.875 30 C 59.875 28.035156 59.679688 26.113281 59.320312 24.253906 Z M 59.320312 24.253906 "/>
</g>
</svg>
